<svg xmlns="http://www.w3.org/2000/svg" width="415" height="90" viewBox="0 0 415 90"><rect width="413.51" height="88.51" x=".75" y=".75" rx="2.82" ry="2.81" fill="none" stroke="#fff" stroke-opacity=".5" stroke-width="1.49"/><path d="M6.34 3.22c-1.7 0-3.1 1.37-3.1 3.08v28.65c0 1.7 1.4 3.08 3.1 3.08H92.1c1.7 0 3.08-1.37 3.08-3.08V6.3c0-1.7-1.38-3.08-3.1-3.08H6.35zm81.52 3.7l1.2 1.37L90.3 6.9l.86.78-1.3 1.5 1.3 1.45-.87.78-1.23-1.37-1.2 1.37-.9-.78L88.3 9.2l-1.32-1.5.88-.78zm-71.6 4.1c1.92 0 3.48 1.56 3.48 3.48 0 1.93-1.56 3.48-3.5 3.48-1.9 0-3.48-1.55-3.48-3.48 0-1.92 1.57-3.48 3.5-3.48zm14.4 5.16l3.33 3.45 2.1-2.02 7.7 11.88H12.34L19 22.86l2.93 1.12 8.72-7.8zm25.28 7.8c.27 0 .5.03.7.1.22.06.4.18.54.34.14.16.22.35.28.62.08.27.13.6.13 1.03v3h-.82v-2.85c0-.52-.07-.9-.22-1.15-.15-.26-.4-.4-.8-.4-.36 0-.65.08-.88.28-.23.18-.4.43-.5.7v3.43h-.78V24.1h.56l.12.6h.07c.15-.2.35-.37.62-.5.27-.14.6-.22.97-.22zm15.67 0c.33 0 .6.06.8.2.2.1.38.3.5.6.15-.25.35-.43.62-.58.27-.15.56-.22.9-.22.28 0 .52.03.72.1.2.06.34.18.46.34.13.16.23.35.3.62.04.27.08.64.08 1.06v2.98h-.8v-3c0-.25-.02-.46-.04-.64s-.1-.32-.16-.43c-.07-.1-.15-.2-.28-.24-.12-.06-.27-.1-.47-.1-.33 0-.6.1-.78.3-.18.17-.32.45-.4.8v3.32h-.8v-2.83c0-.26-.02-.5-.04-.68 0-.2-.05-.37-.12-.5-.06-.13-.15-.24-.28-.3-.12-.08-.3-.1-.5-.1-.3 0-.54.1-.75.28-.2.18-.35.43-.43.7v3.43h-.78V24.1h.56l.12.6h.07c.17-.2.35-.37.58-.5.24-.14.56-.22.93-.22zm10.43 0c.22 0 .42 0 .65.07.23.04.44.14.62.28.18.13.33.36.44.62.1.25.2.57.2 1 0 .2-.04.44-.07.7h-3.22c0 .3.04.56.1.78.06.23.15.43.28.6.12.15.27.25.47.34.2.08.45.12.74.12.23 0 .46-.05.7-.13.22-.08.38-.18.5-.28l.3.58c-.2.16-.44.28-.75.37-.3.1-.63.12-.97.12-.38 0-.72-.03-1-.15-.28-.13-.5-.3-.7-.53-.17-.24-.3-.53-.4-.85-.08-.32-.12-.66-.12-1.06 0-.85.23-1.52.6-1.96.38-.45.92-.66 1.63-.66zM63.57 24c.35 0 .6.08.8.17.23.1.4.2.5.34.12.16.2.33.23.5.04.2.06.36.06.54 0 .4 0 .8-.03 1.18l-.03 1.06c0 .24 0 .5.03.7.02.23.04.4.1.6h-.6l-.2-.68h-.05c-.06.1-.12.18-.22.28-.08.08-.2.17-.34.25-.12.06-.27.1-.43.15-.18.05-.36.06-.58.06-.2 0-.4-.02-.6-.1-.17-.06-.32-.15-.46-.27-.13-.13-.23-.26-.3-.44-.08-.17-.13-.37-.13-.6 0-.28.07-.54.18-.73.13-.2.3-.36.5-.47.23-.12.5-.2.8-.25.3-.05.62-.06 1-.06h.55l.03-.53c0-.37-.07-.6-.22-.75-.14-.15-.42-.25-.8-.25-.12 0-.25 0-.38.03-.13 0-.27.06-.4.1-.14.02-.25.04-.38.1-.12.03-.22.1-.3.14l-.26-.62c.25-.15.54-.24.87-.3.35-.08.7-.14 1.07-.14zm18.46.67c-.4 0-.7.1-.94.3-.24.2-.4.57-.45 1.06h2.5c0-.5-.12-.85-.3-1.05-.2-.2-.47-.3-.82-.3zM63.8 26.8c-.22 0-.43.05-.63.07-.2.02-.38.06-.53.13-.15.06-.25.13-.35.25-.1.1-.13.23-.13.4 0 .23.08.44.25.6.17.14.36.2.62.2.2 0 .35 0 .5-.05.15-.06.27-.15.38-.22.1-.08.2-.16.28-.25.07-.1.12-.16.15-.25v-.84h-.3c-.1 0-.17-.03-.26-.03zM102.27 3.92c-1.7 0-3.1 1.38-3.1 3.08v28.66c0 1.7 1.4 3.08 3.1 3.08h85.75c1.7 0 3.1-1.38 3.1-3.08V7c0-1.7-1.4-3.08-3.1-3.08h-85.75zm81.5 3.7L185 9l1.2-1.38.9.78-1.32 1.5 1.3 1.45-.87.78-1.2-1.37-1.22 1.37-.87-.78 1.32-1.46-1.3-1.5.86-.78zm-71.6 4.1c1.94 0 3.5 1.56 3.5 3.5 0 1.9-1.56 3.47-3.5 3.47-1.92 0-3.48-1.57-3.48-3.5 0-1.92 1.55-3.47 3.48-3.47zm14.4 5.16l3.35 3.45 2.12-2.02 7.7 11.9h-31.5l6.68-6.63 2.93 1.12 8.73-7.82zm25.3 7.8c.26 0 .5.03.7.1.2.06.4.18.54.34.15.16.22.35.3.62.06.27.1.62.1 1.03v3h-.8v-2.85c0-.5-.06-.9-.22-1.15-.14-.26-.4-.4-.8-.4-.36 0-.65.1-.88.28-.22.2-.4.43-.5.7v3.43h-.78V24.8h.56l.13.6h.07c.16-.2.36-.36.62-.5.27-.14.6-.2.96-.2zm15.67 0c.32 0 .58.07.78.2.2.1.4.3.5.6.15-.24.36-.43.62-.58.27-.14.57-.2.9-.2.3 0 .53 0 .72.08.2.06.34.18.47.34.13.16.23.35.28.62.07.28.1.64.1 1.06v2.98h-.8v-3c0-.25 0-.46-.04-.63-.02-.18-.08-.33-.15-.44-.06-.1-.15-.18-.27-.24-.12-.06-.27-.1-.47-.1-.33 0-.6.1-.78.3-.2.18-.33.45-.4.8v3.32h-.82v-2.82c0-.27 0-.5-.03-.7-.02-.2-.06-.35-.12-.5-.06-.12-.15-.23-.27-.3-.12-.06-.3-.1-.5-.1-.3 0-.54.1-.75.3-.2.18-.36.43-.44.7v3.42h-.77V24.8h.56l.12.6h.06c.2-.2.37-.36.6-.5.24-.14.56-.2.94-.2zm10.4 0c.24 0 .44.02.67.07.23.04.45.14.63.28s.32.36.44.62c.1.25.18.58.18 1 0 .2-.02.44-.06.7h-3.22c0 .3.03.56.1.8.05.2.15.42.27.58.13.15.27.25.47.34.2.08.46.12.75.12.23 0 .46-.05.7-.13.2-.08.37-.17.48-.28l.32.58c-.2.16-.45.28-.75.37-.3.1-.63.13-.97.13-.38 0-.72-.04-1-.16-.27-.12-.5-.3-.68-.53-.18-.24-.32-.53-.4-.85-.1-.3-.13-.65-.13-1.05 0-.85.2-1.52.6-1.96.37-.45.9-.65 1.6-.65zm-18.44.04c.34 0 .6.06.8.15.22.1.4.2.5.34.12.16.2.33.23.5.04.2.06.36.06.54 0 .4-.02.8-.04 1.18l-.03 1.06c0 .24 0 .5.03.7.02.23.04.42.1.6h-.6l-.2-.68h-.05c-.05.1-.12.2-.2.28-.1.1-.23.18-.35.25-.13.06-.27.1-.44.15-.15.05-.34.07-.55.07-.2 0-.4-.03-.6-.1-.17-.06-.33-.16-.46-.28-.14-.12-.24-.26-.32-.43-.07-.17-.13-.37-.13-.6 0-.28.07-.55.2-.74.1-.2.28-.35.5-.46.2-.12.47-.2.77-.25.3-.07.63-.08 1-.08h.56l.03-.52c0-.37-.06-.6-.2-.75-.16-.15-.43-.25-.82-.25-.1 0-.24 0-.37.03l-.4.1c-.13.02-.25.04-.37.1-.12.03-.22.1-.32.14l-.23-.62c.25-.15.54-.24.87-.3.34-.08.7-.13 1.06-.13zm18.45.65c-.4 0-.7.1-.93.3-.24.22-.4.57-.44 1.07h2.5c0-.5-.12-.86-.32-1.06-.2-.2-.46-.3-.8-.3zm-18.23 2.14c-.2 0-.43.05-.63.08-.2.02-.38.06-.54.12-.14.06-.25.14-.34.25-.1.1-.12.24-.12.4 0 .24.08.44.24.6.17.14.37.2.63.2.18 0 .35 0 .5-.05.14-.05.26-.14.37-.22.1-.08.22-.15.28-.25.07-.1.12-.16.16-.24v-.85h-.3c-.1 0-.17-.04-.26-.04zM198.2 3.92c-1.7 0-3.1 1.38-3.1 3.08v28.66c0 1.7 1.4 3.08 3.1 3.08h85.75c1.7 0 3.08-1.38 3.08-3.08V7c0-1.7-1.38-3.08-3.08-3.08H198.2zm81.5 3.7L280.93 9l1.22-1.38.87.78-1.3 1.5 1.3 1.45-.86.78-1.22-1.37-1.2 1.37-.9-.78 1.32-1.46-1.3-1.5.87-.78zm-71.6 4.1c1.93 0 3.5 1.56 3.5 3.5 0 1.9-1.57 3.47-3.5 3.47-1.92 0-3.5-1.57-3.5-3.5 0-1.92 1.58-3.47 3.5-3.47zm14.4 5.16l3.34 3.45 2.12-2.02 7.7 11.9h-31.48l6.67-6.63 2.93 1.12 8.73-7.82zm25.3 7.8c.26 0 .5.03.7.1.2.06.4.18.53.34.14.16.22.35.28.62.1.27.14.62.14 1.03v3h-.8v-2.85c0-.5-.08-.9-.23-1.15-.14-.26-.4-.4-.8-.4-.35 0-.64.1-.87.28-.23.2-.4.43-.5.7v3.43h-.78V24.8h.56l.14.6h.06c.16-.2.35-.36.62-.5s.6-.2.97-.2zm15.67 0c.32 0 .58.07.78.2.2.1.38.3.5.6.15-.24.35-.43.62-.58.27-.14.56-.2.9-.2.28 0 .53 0 .72.08.18.06.33.18.46.34.12.16.22.35.28.62.06.28.1.64.1 1.06v2.98H267v-3c0-.25 0-.46-.03-.63-.03-.18-.1-.33-.17-.44-.06-.1-.15-.18-.28-.24-.12-.06-.27-.1-.46-.1-.35 0-.6.1-.8.3-.18.18-.32.45-.4.8v3.32h-.8v-2.82c0-.27 0-.5-.04-.7-.02-.2-.06-.35-.13-.5-.06-.12-.15-.23-.28-.3-.12-.06-.3-.1-.5-.1-.3 0-.54.1-.74.3-.2.18-.35.43-.43.7v3.42h-.78V24.8h.55l.13.6h.06c.18-.2.36-.36.6-.5.23-.14.55-.2.93-.2zm10.4 0c.23 0 .44.02.66.07.23.04.45.14.63.28s.32.36.43.62c.1.25.18.58.18 1 0 .2-.02.44-.06.7h-3.2c0 .3.02.56.08.8.06.2.15.42.28.58.13.15.27.25.47.34.2.08.45.12.75.12.22 0 .46-.05.68-.13.23-.08.4-.17.5-.28l.3.58c-.2.16-.43.28-.74.37-.3.1-.62.13-.96.13-.38 0-.72-.04-1-.16s-.5-.3-.7-.53c-.16-.24-.3-.53-.4-.85-.08-.3-.12-.65-.12-1.05 0-.85.22-1.52.6-1.96.38-.45.9-.65 1.62-.65zm-18.45.04c.35 0 .6.06.8.15.23.1.4.2.5.34.13.16.2.33.23.5.04.2.06.36.06.54 0 .4 0 .8-.02 1.18l-.03 1.06c0 .24 0 .5.03.7.02.23.04.42.1.6h-.6l-.18-.68h-.07c-.06.1-.12.2-.2.28-.1.1-.23.18-.36.25-.12.06-.27.1-.43.15-.17.05-.35.07-.56.07-.22 0-.4-.03-.6-.1-.18-.06-.33-.16-.46-.28-.14-.12-.24-.26-.32-.43-.07-.17-.12-.37-.12-.6 0-.28.07-.55.2-.74.1-.2.27-.35.5-.46.2-.12.47-.2.77-.25.3-.07.63-.08 1-.08h.55l.03-.52c0-.37-.07-.6-.2-.75-.16-.15-.44-.25-.82-.25-.1 0-.23 0-.37.03l-.4.1c-.14.02-.25.04-.38.1-.12.03-.22.1-.3.14l-.26-.62c.24-.15.53-.24.86-.3.34-.08.7-.13 1.06-.13zm18.46.65c-.4 0-.7.1-.94.3-.23.22-.4.57-.43 1.07h2.5c0-.5-.12-.86-.3-1.06-.2-.2-.47-.3-.82-.3zm-18.24 2.14c-.2 0-.42.05-.62.08-.2.02-.38.06-.53.12-.16.06-.26.14-.35.25-.1.1-.13.24-.13.4 0 .24.08.44.25.6.17.14.37.2.62.2.18 0 .35 0 .5-.05.14-.05.26-.14.37-.22.1-.08.2-.15.28-.25.07-.1.12-.16.15-.24v-.85h-.3c-.1 0-.16-.04-.26-.04z" fill="#fff" fill-opacity=".5"/><g fill-opacity=".5"><path d="M6.8 57.15c-1.23 0-2.22 1-2.22 2.2 0 1.22 1 2.2 2.2 2.2 1.23 0 2.22-.98 2.22-2.2 0-1.2-1-2.2-2.2-2.2zm9.1 3.27l-5.53 4.94-1.84-.73-4.25 4.22h19.95l-4.87-7.53-1.33 1.28-2.13-2.18z" fill="#fff"/><text style="line-height:125%;-inkscape-font-specification:PT Sans" x="-8.24" y="121.47" font-size="10" letter-spacing="0" word-spacing="0" font-family="PT Sans" transform="matrix(.9975 0 0 .9946 38.26 -51.673)"><tspan x="-8.24" y="121.47" fill="#fff">n a m e</tspan></text></g><path d="M2.9 41.1v14.92h409.33v-14.9H2.9zm3.88 1.37c1.22 0 2.2 1 2.2 2.2C9 45.9 8 46.9 6.8 46.9c-1.22 0-2.2-1-2.2-2.22 0-1.22.98-2.2 2.2-2.2zm9.13 3.27l2.13 2.2 1.34-1.3 4.86 7.55H4.28l4.24-4.24 1.84.72 5.55-4.94zm17.28 3.63c.27 0 .5.06.72.13.2.06.36.15.5.3.13.17.24.4.3.66.08.27.1.62.1 1.03v2.97h-.78v-2.83c0-.52-.1-.9-.25-1.15-.14-.27-.4-.4-.8-.4-.36 0-.65.08-.88.27-.24.18-.4.43-.48.7v3.4h-.8V49.5h.55l.16.62h.03c.16-.2.4-.4.65-.53.3-.15.6-.23.98-.23zm15.68 0c.32 0 .58.06.78.2.2.1.35.34.47.64.16-.25.36-.46.63-.6.27-.16.6-.23.93-.23.28 0 .5.06.7.13.18.06.36.15.5.3.12.17.2.4.24.66.06.27.1.6.1 1.03v2.97h-.8V51.5c0-.25-.02-.46-.05-.63-.02-.18-.05-.33-.12-.44-.07-.12-.16-.2-.28-.25-.12-.06-.3-.1-.5-.1-.34 0-.6.1-.78.3-.2.17-.33.42-.4.76v3.33h-.8v-2.8c0-.26 0-.5-.02-.68-.02-.2-.1-.38-.15-.5-.07-.14-.16-.25-.3-.32-.1-.07-.25-.1-.45-.1-.3 0-.58.1-.78.3-.2.17-.33.4-.4.67v3.42h-.82V49.5h.56l.17.62h.03c.18-.2.4-.4.62-.53.24-.15.56-.23.94-.23zm10.38 0c.23 0 .46.04.7.1.2.04.4.14.58.28.18.14.35.33.46.6.12.24.16.56.16.98 0 .22-.02.48-.06.75h-3.2c0 .3.02.55.08.77.06.23.16.4.28.56.13.17.3.3.5.4.2.07.46.1.75.1.2 0 .45-.03.67-.1.23-.1.4-.2.5-.3l.3.57c-.18.16-.46.3-.76.4-.3.1-.62.12-.96.12-.38 0-.7-.07-.97-.2-.28-.12-.5-.3-.68-.52-.2-.23-.33-.5-.42-.8-.08-.33-.12-.7-.12-1.1 0-.84.18-1.48.56-1.92.38-.45.9-.7 1.62-.7zm-18.98.07c.17-.02.34 0 .53 0 .33 0 .62.03.83.12.2.1.36.22.46.37.1.15.18.32.2.5.05.18.08.35.08.53 0 .4-.02.77-.04 1.15l-.03 1.1c0 .24.02.46.04.68.02.22.08.44.13.62h-.6l-.2-.7h-.07l-.22.27-.3.25c-.14.06-.28.1-.45.15-.17.05-.35.1-.56.1-.2 0-.44-.03-.62-.1s-.34-.16-.47-.28c-.14-.14-.23-.3-.3-.48-.1-.17-.1-.37-.1-.6 0-.28.03-.5.15-.7.12-.2.28-.35.5-.47.22-.12.48-.2.78-.25.3-.05.67-.1 1.03-.1h.25c.1 0 .2.03.28.04.02-.2.04-.37.04-.53 0-.35-.08-.62-.22-.76-.15-.15-.4-.22-.78-.22-.1 0-.24 0-.38.03-.12 0-.26.03-.4.06l-.4.14c-.13.04-.22.07-.32.12l-.25-.6c.26-.14.54-.26.88-.33.17-.04.35-.08.53-.1zm18.98.65c-.4 0-.7.1-.94.3-.23.2-.35.56-.4 1.06h2.46c0-.5-.1-.86-.28-1.06-.2-.2-.5-.3-.84-.3zM41 52.22c-.2 0-.42 0-.62.03-.2.02-.35.06-.5.13-.14.05-.28.16-.37.27-.08.1-.12.24-.12.4 0 .23.1.4.25.56.17.15.4.22.66.22.17 0 .34-.02.5-.06l.36-.2c.1-.08.18-.16.25-.25.08-.1.13-.2.16-.28v-.84H41z" opacity=".45" fill="#fff" fill-opacity=".5"/><g fill-opacity=".5"><path d="M6.8 42.23c-1.23 0-2.22 1-2.22 2.2 0 1.22 1 2.2 2.2 2.2 1.23 0 2.22-.98 2.22-2.2 0-1.2-1-2.2-2.2-2.2zm9.1 3.27l-5.53 4.94-1.84-.73-4.25 4.23h19.95l-4.87-7.53-1.33 1.28-2.13-2.18z" fill="#fff"/><text y="121.47" x="-8.24" style="line-height:125%;-inkscape-font-specification:PT Sans" font-size="10" letter-spacing="0" word-spacing="0" font-family="PT Sans" transform="matrix(.9975 0 0 .9946 38.26 -66.592)"><tspan y="121.47" x="-8.24" fill="#fff">n a m e</tspan></text></g><g fill-opacity=".5"><path d="M6.8 72.07c-1.23 0-2.22 1-2.22 2.2 0 1.22 1 2.2 2.2 2.2 1.23 0 2.22-.98 2.22-2.2 0-1.2-1-2.2-2.2-2.2zm9.1 3.27l-5.53 4.94-1.84-.73-4.25 4.22h19.95l-4.87-7.53-1.33 1.28-2.13-2.18z" fill="#fff"/><text y="121.47" x="-8.24" style="line-height:125%;-inkscape-font-specification:PT Sans" font-size="10" letter-spacing="0" word-spacing="0" font-family="PT Sans" transform="matrix(.9975 0 0 .9946 38.26 -36.754)"><tspan y="121.47" x="-8.24" fill="#fff">n a m e</tspan></text></g></svg>
