<svg width="438.55" height="438.55" viewBox="0 0 438.549 438.549" xmlns="http://www.w3.org/2000/svg"><path fill="#fff" d="M409.13 114.57c-19.6-33.6-46.2-60.2-79.8-79.8-33.6-19.6-70.27-29.4-110.06-29.4-39.78 0-76.47 9.8-110.06 29.4-33.6 19.6-60.18 46.2-79.8 79.8C9.8 148.17 0 184.85 0 224.63c0 47.78 13.94 90.75 41.83 128.9 27.88 38.17 63.9 64.58 108.06 79.23 5.13.96 8.93.3 11.4-2 2.48-2.27 3.72-5.13 3.72-8.55l-.14-15.4c-.1-9.72-.15-18.2-.15-25.42l-6.56 1.14c-4.2.77-9.47 1.1-15.85 1-6.38-.1-13-.76-19.84-2-6.86-1.23-13.23-4.1-19.13-8.56-5.9-4.47-10.1-10.33-12.56-17.56l-2.87-6.57c-1.9-4.37-4.9-9.23-9-14.55-4.08-5.34-8.22-8.95-12.4-10.85l-2-1.43c-1.34-.95-2.58-2.1-3.72-3.43-1.13-1.33-2-2.67-2.56-4-.57-1.33-.1-2.43 1.43-3.3 1.52-.85 4.28-1.26 8.28-1.26l5.7.86c3.8.76 8.52 3.04 14.14 6.85 5.6 3.82 10.22 8.76 13.84 14.85 4.38 7.8 9.65 13.76 15.84 17.85 6.2 4.1 12.42 6.13 18.7 6.13 6.28 0 11.7-.47 16.28-1.42 4.56-.94 8.84-2.37 12.84-4.27 1.72-12.76 6.38-22.56 14-29.4-10.86-1.15-20.6-2.87-29.27-5.15-8.66-2.3-17.6-6-26.84-11.14-9.24-5.14-16.9-11.52-23-19.13-6.08-7.6-11.08-17.6-14.98-29.97-3.9-12.37-5.85-26.65-5.85-42.82 0-23.03 7.52-42.63 22.55-58.8-7.04-17.33-6.37-36.74 2-58.25 5.52-1.72 13.7-.43 24.56 3.85 10.85 4.28 18.8 7.95 23.84 11 5.04 3.04 9.08 5.6 12.13 7.7 17.7-4.94 35.98-7.42 54.82-7.42s37.12 2.48 54.82 7.42l10.84-6.85c7.42-4.57 16.18-8.75 26.26-12.56 10.1-3.82 17.8-4.86 23.14-3.15 8.56 21.5 9.32 40.92 2.28 58.24 15.03 16.17 22.55 35.78 22.55 58.8 0 16.2-1.95 30.5-5.85 42.97-3.9 12.48-8.94 22.46-15.12 29.98-6.2 7.52-13.9 13.85-23.13 19-9.24 5.13-18.2 8.84-26.84 11.13-8.67 2.28-18.42 4-29.27 5.14 9.9 8.56 14.84 22.08 14.84 40.54v60.24c0 3.42 1.2 6.28 3.58 8.56 2.38 2.28 6.13 2.95 11.27 2 44.17-14.66 80.2-41.07 108.07-79.23 27.88-38.16 41.83-81.13 41.83-128.9 0-39.78-9.82-76.46-29.42-110.06z"/></svg>
