<svg xmlns="http://www.w3.org/2000/svg" width="24" height="24" version="1" viewBox="0 0 24 24">
  <path fill="none" stroke="#000" stroke-width=".5" stroke-miterlimit="10" d="M10.67 10.81l.765-.767h1.02l.764.766v1.02l-.766.767h-1.02l-.763-.766z" stroke-linecap="round" stroke-linejoin="round"/>
  <g fill="none" stroke="#000" stroke-width=".49" stroke-miterlimit="10" stroke-linecap="round" stroke-linejoin="round">
    <path d="M18.592 9.445v11.223l-6.008 2.822-6.27-2.95-.024-3.292 2.242-.02.02 1.644 3.46-1.687.054-3.903-3.71-1.738.017 1.864-2.058-.018V9.476l6.27-2.95z" transform="translate(4.8 -4.3)"/>
    <path d="M21.672 6.152l-6.27-2.95M19.508 7.214l-6.27-2.95"/>
  </g>
  <path fill="none" stroke="#000" stroke-width=".979" stroke-miterlimit="10" d="M.5 3.5l2-2 2 2 2-2 2 2 2-2 2 2" transform="matrix(.5 0 0 .5 3.7 3.6)" stroke-linecap="round" stroke-linejoin="round"/>
  <path fill="none" stroke="#000" stroke-width=".979" stroke-miterlimit="10" d="M.5 7.5l2-2 2 2 2-2 2 2" transform="matrix(.5 0 0 .5 2.2 4)" stroke-linecap="round" stroke-linejoin="round"/>
  <path fill="none" stroke="#000" stroke-width=".5" stroke-miterlimit="10" d="M15.928 20.424l-7.008 3.32L.255 19.66V4.332L8.92.245l5.096 2.362" stroke-linecap="round" stroke-linejoin="round"/>
  <g stroke="#000" stroke-width=".49" stroke-miterlimit="10">
    <path fill="none" stroke-width=".5" d="M7.844 13.375l-1.407-3.217-1.375 3.22m2.782-.003l-.657.75-.687-.656-.656.655-.782-.75L2.97 18.25l3.467 1.688L9.97 18.25z" stroke-linejoin="round"/>
  </g>
</svg>
