<svg xmlns="http://www.w3.org/2000/svg" width="260" height="35" viewBox="0 0 260 35"><path d="M3.1 0C1.4 0 0 1.38 0 3.1v28.8C0 33.63 1.4 35 3.1 35h41.95c1.7 0 3.1-1.38 3.1-3.1V3.1c0-1.72-1.4-3.1-3.1-3.1zm9.93 7.84c1.93 0 3.5 1.57 3.5 3.5 0 1.94-1.57 3.5-3.5 3.5s-3.5-1.56-3.5-3.5c0-1.93 1.57-3.5 3.5-3.5zm14.43 5.2l3.35 3.46 2.12-2.02 7.7 11.93H9.1l6.68-6.66 2.93 1.14z" fill="#fff"/><path style="text-align:start;line-height:125%;-inkscape-font-specification:Letter Gothic Std Bold" d="M88.8 11.44c-1.4 0-2.26.7-3.25 1.6-.9-1.18-1.35-1.57-2.9-1.57-1.43 0-2.3.64-3.3 1.53l-.36-1.53H76.6c.38 1.78 1.1 3.34.68 5.62v11.7h2.38V15.54c.44-1.05 1.58-2.06 2.72-2.06 1.07 0 1.34 1.05 1.34 1.94v13.4h2.38V15.23c.5-.9 1.42-1.78 2.5-1.78.95 0 1.7.65 1.53 1.78v13.6h2.37V15.2c0-2.3-1.44-3.78-3.72-3.78zm14.63.03c-1.77 0-3.26.55-4.88 1.2l.57 2.08c1.36-.57 2.73-1.28 4.22-1.28 1.77 0 2.93 1.34 2.93 3.22v1.6c-1.07-.43-2.3-.83-3.56-.83-3.4 0-5.4 2.85-5.4 6.12 0 3 1.8 5.56 5.04 5.56 1.77 0 3.08-.7 4.2-2.07l.6 2.12 2.23-.28c-.5-1.46-.75-3.04-.75-4.6v-7.37c0-2.83-1.96-5.5-5.2-5.5zm19 0c-4.68 0-6.47 4.22-6.47 8.25 0 3.68 2 7.66 6.16 7.66 1.67 0 2.73-.55 4.03-1.4v1.3c0 2.4-1.13 4.72-3.63 4.72-1.58 0-3.05-.82-4-2.06l-1.68 1.43c1.32 1.47 3.4 2.63 5.4 2.63 2.44 0 6.28-1.54 6.28-6.84V17.8c0-2.15.15-4.27.72-6.33H127l-.45 1.5c-1.3-.95-2.5-1.5-4.12-1.5zm19.53 0c-5.06 0-7.12 4.52-7.12 8.97 0 4.4 2 8.72 7 8.72 2.34 0 4.38-.74 6.5-1.7l-1.04-2.12c-1.55.96-3.4 1.82-5.28 1.82-2.6 0-4.68-1.56-4.8-6.22h11.27v-1.32c0-1.84-.9-8.15-6.54-8.15zm-79.15 4.6V28.8h2.4V16.07zm59.66-2.6c1.46 0 2.93.95 3.7 2.1v7.6c-.74 1.22-2.46 2.2-3.92 2.2-2.3 0-3.9-2.63-3.9-5.93 0-2.6 1-5.97 4.12-5.97zm19.3 0c2.67 0 4.26 2.67 4.36 5.47h-8.94c.63-3.43 1.93-5.47 4.6-5.47zm-38.74 6c1.14 0 2.24.4 3.25.84v3.95c-.98 1.37-2.1 2.9-3.93 2.9-1.84 0-2.66-1.84-2.66-3.43 0-2.16.94-4.25 3.34-4.25z" transform="matrix(.94085 0 0 .93738 4.078 2.055)" font-size="31.7" font-weight="bold" font-family="Letter Gothic Std" letter-spacing="0" word-spacing="0" fill="#fff" stroke="#fff"/><path style="text-align:start;line-height:125%;-inkscape-font-specification:Letter Gothic Std Bold" d="M200.3 5.25V28.8h2.36V5.26zm52.5 1.38v5.18h-3.63v2h3.63v8.95c0 5.08 1.74 6.4 4.5 6.4 2.85 0 4.8-1.96 5.94-4.4l-2.3-.56c-.65 1.48-1.78 2.96-3.58 2.96-2.15 0-2.54-2.05-2.2-3.66v-9.7h6.08v-2h-6.07V6.63zm-87.64 4.84c-2.95 0-5.22 2.02-5.22 4.5 0 3.05 2.78 4.17 5.2 5.1 1.73.66 3.52 1.27 3.52 3.5 0 1.7-1.36 2.6-2.94 2.6-2 0-4.2-1.43-5.53-2.86l-1.3 1.92c1.87 1.68 4.4 2.94 6.97 2.94 2.63 0 5.16-1.9 5.16-4.7 0-3.36-2.78-4.48-5.44-5.46-1.3-.48-3.3-1.3-3.3-2.94 0-1.52 1.34-2.6 2.76-2.6 1.7 0 3.2.96 4.53 1.9l1.06-1.92c-1.68-1.2-3.38-1.97-5.5-1.97zm19.65 0c-5.05 0-7.1 4.52-7.1 8.97 0 4.4 2 8.72 7 8.72 2.33 0 4.34-.74 6.46-1.7l-1-2.12c-1.55.96-3.42 1.82-5.28 1.82-2.6 0-4.7-1.56-4.82-6.22h11.28v-1.32c0-1.84-.9-8.15-6.53-8.15zm33.72 0c-5.07 0-7.1 4.52-7.1 8.97 0 4.4 1.97 8.72 6.97 8.72 2.33 0 4.37-.74 6.5-1.7l-1-2.12c-1.56.96-3.45 1.82-5.32 1.82-2.6 0-4.66-1.56-4.78-6.22h11.25v-1.32c0-1.84-.9-8.15-6.53-8.15zm19.47 0c-3.4 0-7.23 2.24-7.23 9.03 0 6.73 4.18 8.66 7.3 8.66 2.64 0 4.33-1.26 6.04-3.1l-1.58-1.68c-1.14 1.36-2.6 2.78-4.47 2.78-2.2 0-4.9-1.58-4.9-6.88 0-5 2.43-6.8 4.84-6.8 2.07 0 3.32 1.43 4.17 3.14l2.03-1.37c-1.48-2.25-3.43-3.78-6.2-3.78zm-53.38 2c2.66 0 4.25 2.67 4.35 5.47h-8.94c.63-3.43 1.94-5.47 4.6-5.47zm33.7 0c2.67 0 4.26 2.67 4.35 5.47h-8.93c.63-3.43 1.93-5.47 4.6-5.47z" transform="matrix(.94085 0 0 .93738 11.867 1.802)" font-size="31.7" font-weight="bold" font-family="Letter Gothic Std" letter-spacing="0" word-spacing="0" fill="#fff" stroke="#fff"/><path d="M64.46 11.64l-1.63-2.8L61.2 6h6.5l-1.62 2.83z" fill="#fff"/></svg>
